:SAMPLES-PER-SECOND 30
:FULLY-SPECIFIED
:DEGREES
504
root  -3.34058 41.006 0.00190813 5.77005 -83.6615 -2.33127
RightUpLeg  1.79876 -0.702408 -0.0762174
RightLeg  -7.22086 -25.8427 4.01401
RightFoot  2.08503 -0.134069 1.32016
RightToes  -3.13588e-008 1.75238e-005 3.56266e-009
Spine  5.37244 0.427274 -3.45045
Spine1  -9.08125 0.198335 2.16411
HEad  -14.3462 -4.04114 7.34513
LeftShoulder1  0.282162 2.15176 -13.891
LeftArm  -62.3183 -24.5647 -1.37825
LeftForeArm  70.305 -79.3003 -78.6249
LeftHand  -1.01586 -2.96195 14.3175
RightShoulder  -0.175895 -4.7245 6.47986
RightArm  -55.9654 18.768 -4.01925
RightForeArm  28.4405 77.723 81.998
RightHand  -1.47336 9.05177 -12.1589
LeftUpLeg  -0.80633 1.27188 4.17839
LeftLeg  -4.12338 9.00334 -0.773745
LeftFoot  2.41829 0.505993 -4.35101
LeftToes  4.76812e-008 1.47286e-008 1.3089e-009
505
root  -3.35117 41.0066 0.00611573 6.24753 -83.7677 -2.37479
RightUpLeg  1.41528 -0.725849 -0.133058
RightLeg  -7.40796 -25.7064 4.18551
RightFoot  2.20093 -0.129888 1.28647
RightToes  -3.13588e-008 1.75238e-005 3.56266e-009
Spine  6.13464 0.587297 -3.77073
Spine1  -9.80353 0.311889 2.51232
HEad  -13.0046 -4.52514 7.34019
LeftShoulder1  0.249149 2.32269 -14.1383
LeftArm  -70.0516 -22.6173 -1.68696
LeftForeArm  117.273 -77.2341 -125.447
LeftHand  -1.03995 -3.06156 14.484
RightShoulder  -0.248801 -5.19132 6.91906
RightArm  -64.4541 15.626 -3.19301
RightForeArm  65.4303 76.3404 117.902
RightHand  -1.39558 8.959 -11.6116
LeftUpLeg  -1.16105 1.1556 4.14003
LeftLeg  -4.31989 9.27684 -0.780296
LeftFoot  2.55354 0.503323 -4.33011
LeftToes  4.76812e-008 1.47286e-008 1.3089e-009
506
root  -3.37029 41.007 0.0156312 6.56445 -83.7931 -2.36597
RightUpLeg  1.24544 -0.714079 -0.163773
RightLeg  -7.76277 -25.6483 4.3762
RightFoot  2.33984 -0.118866 1.14067
RightToes  -3.13588e-008 1.75238e-005 3.56266e-009
Spine  6.26381 0.621036 -4.08045
Spine1  -9.54649 0.29278 2.91839
HEad  -12.4803 -4.50777 6.95556
LeftShoulder1  0.17933 2.66861 -14.5271
LeftArm  -78.9768 -21.9155 -1.80454
LeftForeArm  140.174 -70.8706 -147.974
LeftHand  -1.08909 -3.9057 13.8284
RightShoulder  -0.287048 -5.37586 7.58383
RightArm  -73.6253 13.3499 -2.58287
RightForeArm  86.1394 71.8505 138.787
RightHand  -1.32617 8.86401 -11.134
LeftUpLeg  -1.43239 1.11054 4.12739
LeftLeg  -4.42467 9.36561 -0.823776
LeftFoot  2.61579 0.495523 -4.23366
LeftToes  4.76812e-008 1.47286e-008 1.3089e-009
507
root  -3.39193 41.0073 0.0290664 6.8815 -83.7772 -2.35336
RightUpLeg  0.960042 -0.624774 -0.15384
RightLeg  -7.85748 -25.7529 4.39029
RightFoot  2.3739 -0.117039 1.10658
RightToes  -3.13588e-008 1.75238e-005 3.56266e-009
Spine  6.3274 0.674836 -4.33554
Spine1  -9.384 0.297027 3.31582
HEad  -11.7282 -4.68499 6.43777
LeftShoulder1  0.180717 2.69343 -15.4556
LeftArm  -89.1039 -21.9269 -0.708082
LeftForeArm  149.201 -64.1257 -157.622
LeftHand  -1.02715 -4.02049 12.9138
RightShoulder  -0.311748 -5.4729 8.12643
RightArm  -81.9167 11.1304 -2.46395
RightForeArm  97.0307 66.8525 149.514
RightHand  -1.46099 8.8667 -12.2136
LeftUpLeg  -1.73236 1.09986 4.1236
LeftLeg  -4.47404 9.36517 -0.877624
LeftFoot  2.64145 0.488099 -4.14485
LeftToes  4.76812e-008 1.47286e-008 1.3089e-009
508
root  -3.41444 41.008 0.0437182 6.47256 -83.7247 -1.73199
RightUpLeg  0.703772 -0.631312 -0.23186
RightLeg  -7.67212 -25.7697 4.27546
RightFoot  2.3226 -0.127944 1.19981
RightToes  -3.13588e-008 1.75238e-005 3.56266e-009
Spine  6.37667 0.593864 -4.55989
Spine1  -9.32283 0.181938 3.60417
HEad  -10.9736 -4.05563 6.07093
LeftShoulder1  0.11293 3.00178 -15.6369
LeftArm  -97.6114 -21.9253 -0.198789
LeftForeArm  151.882 -58.4671 -162.259
LeftHand  -0.980836 -3.14926 13.4948
RightShoulder  -0.325118 -5.4971 8.6683
RightArm  -89.4656 10.0297 -2.17175
RightForeArm  104.824 63.3665 154.393
RightHand  -1.87703 10.4531 -13.9919
LeftUpLeg  -1.83695 1.02185 4.03949
LeftLeg  -4.66824 9.39086 -0.935375
LeftFoot  2.70855 0.481656 -4.07047
LeftToes  4.76812e-008 1.47286e-008 1.3089e-009
509
root  -3.43646 41.0093 0.0621531 6.34238 -83.6572 -1.50342
RightUpLeg  0.649947 -0.526832 -0.207417
RightLeg  -7.71982 -25.9957 4.18738
RightFoot  2.34403 -0.138884 1.29021
RightToes  -3.13588e-008 1.75238e-005 3.56266e-009
Spine  6.51283 0.447863 -4.61603
Spine1  -9.52291 0.0314491 3.65489
HEad  -10.0439 -3.39848 6.01956
LeftShoulder1  -0.00432799 3.52279 -15.6258
LeftArm  -103.234 -22.1565 -0.03206
LeftForeArm  152.363 -54.7994 -164.439
LeftHand  -1.1871 -3.73821 15.3165
RightShoulder  -0.297829 -5.28655 9.06226
RightArm  -95.1647 9.76638 -1.68196
RightForeArm  107.706 61.6791 156.249
RightHand  -2.39325 11.7145 -16.5197
LeftUpLeg  -1.90828 1.00513 4.00477
LeftLeg  -4.68766 9.35436 -0.964705
LeftFoot  2.71888 0.482382 -4.1043
LeftToes  4.76812e-008 1.47286e-008 1.3089e-009
510
root  -3.46011 41.0135 0.0937096 6.28082 -83.6139 -1.40421
RightUpLeg  0.684205 -0.553414 -0.270285
RightLeg  -7.77515 -25.9892 4.20328
RightFoot  2.37852 -0.155637 1.42828
RightToes  -3.13588e-008 1.75238e-005 3.56266e-009
Spine  6.37767 0.384046 -4.56947
Spine1  -9.41313 -0.0350014 3.70729
HEad  -9.34136 -3.10249 5.94177
LeftShoulder1  -0.0369884 3.66763 -15.7366
LeftArm  -105.022 -22.1118 0.133728
LeftForeArm  152.078 -53.4407 -165.11
LeftHand  -1.13734 -3.34636 15.3079
RightShoulder  -0.324375 -5.42354 9.29484
RightArm  -98.2345 10.2774 -1.29219
RightForeArm  106.369 61.3368 156.476
RightHand  -2.10602 10.9822 -15.223
LeftUpLeg  -1.87297 0.952345 3.93245
LeftLeg  -4.77258 9.37091 -0.966678
LeftFoot  2.75471 0.471163 -3.94598
LeftToes  4.76812e-008 1.47286e-008 1.3089e-009
511
root  -3.4789 41.0152 0.130103 5.54517 -83.7807 -0.742798
RightUpLeg  0.696472 -0.619982 -0.399492
RightLeg  -7.54619 -25.7371 4.02866
RightFoot  2.3263 -0.169345 1.54503
RightToes  -3.13588e-008 1.75238e-005 3.56266e-009
Spine  6.21563 0.448361 -4.51213
Spine1  -9.45276 0.0433654 3.65282
HEad  -8.80593 -3.2293 5.80378
LeftShoulder1  0.0405141 3.32549 -15.7556
LeftArm  -102.425 -22.9937 -0.924437
LeftForeArm  152.212 -54.4545 -164.585
LeftHand  -1.15142 -3.84424 14.6802
RightShoulder  -0.302476 -5.28433 9.36806
RightArm  -98.4668 11.4836 -0.443272
RightForeArm  105.703 62.2437 155.564
RightHand  -1.92524 10.4077 -14.4213
LeftUpLeg  -1.59147 0.851818 3.78189
LeftLeg  -5.05271 9.64406 -1.01059
LeftFoot  2.82855 0.467205 -3.89695
LeftToes  4.76812e-008 1.47286e-008 1.3089e-009
512
root  -3.48894 41.0175 0.163009 5.121 -83.7991 -0.45105
RightUpLeg  0.841103 -0.680942 -0.471859
RightLeg  -7.51057 -25.6852 3.98418
RightFoot  2.29032 -0.174135 1.58093
RightToes  -3.13588e-008 1.75238e-005 3.56266e-009
Spine  5.62121 0.446039 -4.25666
Spine1  -8.83645 0.0742475 3.37981
HEad  -8.12 -3.45745 5.96783
LeftShoulder1  0.145319 2.85378 -15.6553
LeftArm  -97.7427 -24.5618 -2.16281
LeftForeArm  151.239 -57.8372 -162.558
LeftHand  -1.06197 -3.5505 14.0061
RightShoulder  -0.257664 -5.01344 9.51217
RightArm  -96.7128 13.0901 0.325174
RightForeArm  102.864 63.8954 153.638
RightHand  -1.53427 9.8904 -11.9972
LeftUpLeg  -1.436 0.816201 3.69009
LeftLeg  -5.02569 9.69533 -1.0021
LeftFoot  2.78824 0.45856 -3.83486
LeftToes  4.76812e-008 1.47286e-008 1.3089e-009
513
root  -3.48352 41.0192 0.197047 5.42886 -83.9623 -1.05035
RightUpLeg  1.10374 -0.674486 -0.449849
RightLeg  -7.42867 -25.5419 3.89724
RightFoot  2.29715 -0.175575 1.59063
RightToes  -3.13588e-008 1.75238e-005 3.56266e-009
Spine  5.44353 0.333297 -3.64845
Spine1  -8.97374 0.055526 2.59498
HEad  -7.63498 -3.65415 6.0243
LeftShoulder1  0.26555 2.29068 -14.9664
LeftArm  -91.5958 -26.1621 -4.02335
LeftForeArm  148.904 -62.8167 -158.687
LeftHand  -1.02171 -3.21632 13.9899
RightShoulder  -0.109238 -4.10753 10.1193
RightArm  -92.2874 15.3354 1.02941
RightForeArm  100.324 66.3833 150.355
RightHand  -1.51588 9.36383 -12.233
LeftUpLeg  -1.17107 0.86941 3.69888
LeftLeg  -4.86815 9.7727 -0.966734
LeftFoot  2.68681 0.452641 -3.83724
LeftToes  4.76812e-008 1.47286e-008 1.3089e-009
514
root  -3.47977 41.0185 0.228437 5.56616 -84.2093 -1.69156
RightUpLeg  1.60632 -0.737202 -0.442506
RightLeg  -7.3701 -25.2385 3.83173
RightFoot  2.2904 -0.177363 1.61072
RightToes  -3.13588e-008 1.75238e-005 3.56266e-009
Spine  4.74101 0.334189 -3.55807
Spine1  -7.82484 0.0276876 2.80648
HEad  -7.54807 -3.4748 5.70947
LeftShoulder1  0.292317 2.17617 -15.1645
LeftArm  -86.1095 -29.3756 -5.59211
LeftForeArm  142.542 -69.1517 -150.865
LeftHand  -1.06873 -3.61061 13.9912
RightShoulder  -0.0916408 -4.01313 9.94512
RightArm  -86.4803 18.9665 2.6099
RightForeArm  97.3346 69.8547 144.361
RightHand  -1.73272 10.3313 -13.114
LeftUpLeg  -0.661366 0.997534 3.72874
LeftLeg  -4.70002 9.84853 -0.966129
LeftFoot  2.49735 0.445657 -3.79752
LeftToes  4.76812e-008 1.47286e-008 1.3089e-009
